<?xml version="1.0" encoding="iso-8859-1"?>
<!-- Generator: Adobe Illustrator 18.0.0, SVG Export Plug-In . SVG Version: 6.00 Build 0)  -->
<!DOCTYPE svg PUBLIC "-//W3C//DTD SVG 1.1//EN" "http://www.w3.org/Graphics/SVG/1.1/DTD/svg11.dtd">
<svg version="1.1" id="Capa_1" xmlns="http://www.w3.org/2000/svg" xmlns:xlink="http://www.w3.org/1999/xlink" x="0px" y="0px"
	 viewBox="0 0 372.86 372.86" style="enable-background:new 0 0 372.86 372.86;" xml:space="preserve">
<path d="M372.343,7.638c-0.777-1.48-2.311-2.408-3.983-2.408H4.5c-1.672,0-3.206,0.927-3.983,2.408
	c-0.778,1.48-0.671,3.269,0.278,4.647l11.171,16.205l3.06,28.831c0.242,2.289,2.173,4.025,4.475,4.025h139.733
	c-1.033,2.111-1.617,4.479-1.617,6.985c0,5.14,2.449,9.708,6.229,12.635c-5.42,5.519-8.965,12.432-8.965,18.154
	c0,7.248,5.481,13.506,13.947,17.155c3.413,6.195,3.875,8.652,1.24,12.171c-8.658,8.895-13.821,24.22-13.821,41.141
	c0,13.887,3.745,24.542,10.521,31.093c-5.4,2.568-9.152,8.062-9.152,14.429c0,6.482,3.885,12.063,9.442,14.569
	c-0.117,0.163-0.225,0.329-0.332,0.495c-8.13,1.663-31.93,9.862-31.93,48.813c0,44.594-8.454,48.329-16.379,48.329
	c-20.393,0-28.857,23.328-28.857,35.817c0,2.485,2.015,4.5,4.5,4.5h23.725c1.316,0,2.566-0.576,3.421-1.577
	c0.855-1,1.229-2.325,1.024-3.625c-0.111-0.7-0.257-3.882,1.134-5.51c0.276-0.324,1.118-1.309,3.911-1.309
	c19.152,0,33.596-15.408,33.596-35.841c0-14.826,0.003-36.075,5.314-42.173c2.693,5.346,10.5,9.015,20.244,9.015
	c9.744,0,17.552-3.67,20.245-9.016c5.312,6.099,5.314,27.349,5.314,42.174c0,20.433,14.443,35.841,33.596,35.841
	c2.775,0,3.618,0.972,3.896,1.291c1.358,1.565,1.279,4.616,1.149,5.529c-0.205,1.3,0.169,2.625,1.024,3.625
	c0.855,1.001,2.105,1.577,3.421,1.577h23.725c2.485,0,4.5-2.015,4.5-4.5c0-12.489-8.465-35.817-28.857-35.817
	c-7.925,0-16.379-3.734-16.379-48.329c0-38.956-23.807-47.152-31.934-48.814c-0.106-0.165-0.214-0.331-0.331-0.493
	c5.559-2.506,9.444-8.087,9.444-14.57c0-6.375-3.761-11.874-9.172-14.438c6.781-6.55,10.541-17.191,10.541-31.083
	c0-17.04-5.222-32.429-13.976-41.299c-2.842-3.611-2.284-6.217,1.271-11.961c8.535-3.641,14.071-9.923,14.071-17.206
	c0-5.722-3.545-12.635-8.965-18.154c3.78-2.927,6.229-7.495,6.229-12.635c0-2.504-0.582-4.873-1.612-6.985H353.36
	c2.302,0,4.232-1.736,4.475-4.025l3.06-28.831l11.171-16.205C373.014,10.907,373.121,9.118,372.343,7.638z M151.871,319.767
	c0,15.553-10.344,26.841-24.596,26.841c-5.736,0-9.014,2.427-10.754,4.462c-2.018,2.361-2.865,5.171-3.186,7.559H99.008
	c1.592-8.951,7.524-22.317,19.41-22.317c21.063,0,25.379-22.918,25.379-57.329c0-28.206,13.814-36.661,21.367-39.179v27.767
	C151.875,271.983,151.871,297.238,151.871,319.767z M198.695,273.41c0,1.045-4.351,4.199-12.266,4.199
	c-7.915,0-12.266-3.154-12.266-4.199v-38.119c0-1.045,4.351-4.199,12.266-4.199c7.915,0,12.266,3.154,12.266,4.199V273.41z
	 M229.063,278.984c0,34.411,4.315,57.329,25.379,57.329c11.886,0,17.818,13.366,19.41,22.317h-14.328
	c-0.32-2.388-1.169-5.198-3.187-7.559c-1.739-2.036-5.017-4.462-10.753-4.462c-14.252,0-24.596-11.289-24.596-26.841
	c0-22.518-0.023-47.729-13.293-52.156v-27.802C215.256,242.333,229.063,250.796,229.063,278.984z M206.242,215.108
	c0,3.851-3.133,6.984-6.984,6.984h-25.657c-3.852,0-6.984-3.133-6.984-6.984c0-3.852,3.133-6.985,6.984-6.985h25.657
	C203.11,208.123,206.242,211.256,206.242,215.108z M207.611,169.586c0,19.047-7.522,29.537-21.183,29.537
	c-13.659,0-21.182-10.49-21.182-29.537c0-14.57,4.403-28.021,11.492-35.106c0.004-0.004,0.007-0.009,0.011-0.014
	c0.136-0.137,0.266-0.282,0.386-0.439c4.067-5.328,4.192-10.279,2.87-14.762c2.068,0.269,4.217,0.409,6.424,0.409
	c2.088,0,4.119-0.13,6.084-0.371c-1.285,4.362-1.098,9.363,3.157,14.689c0.048,0.059,0.108,0.101,0.158,0.157
	c0.068,0.077,0.121,0.163,0.195,0.236C203.171,141.446,207.611,154.933,207.611,169.586z M186.43,110.674
	c-13.288,0-22.549-6.09-22.549-11.555c0-3.764,3.684-10.283,9.715-14.766h25.668c6.03,4.483,9.714,11.003,9.714,14.766
	C208.978,104.584,199.718,110.674,186.43,110.674z M166.616,68.33c0-3.852,3.133-6.985,6.984-6.985h25.657
	c3.852,0,6.984,3.133,6.984,6.985c0,3.852-3.133,6.984-6.984,6.984h-25.657C169.749,75.314,166.616,72.181,166.616,68.33z
	 M349.312,52.345H23.548l-2.226-20.968h330.215L349.312,52.345z M354.176,22.377H18.684l-5.616-8.147h346.725L354.176,22.377z"/>
<g>
</g>
<g>
</g>
<g>
</g>
<g>
</g>
<g>
</g>
<g>
</g>
<g>
</g>
<g>
</g>
<g>
</g>
<g>
</g>
<g>
</g>
<g>
</g>
<g>
</g>
<g>
</g>
<g>
</g>
</svg>
