<?xml version="1.0" encoding="iso-8859-1"?>
<!-- Generator: Adobe Illustrator 19.0.0, SVG Export Plug-In . SVG Version: 6.00 Build 0)  -->
<svg version="1.1" id="Layer_1" xmlns="http://www.w3.org/2000/svg" xmlns:xlink="http://www.w3.org/1999/xlink" x="0px" y="0px"
	 viewBox="0 0 512 512" style="enable-background:new 0 0 512 512;" xml:space="preserve">
<path style="fill:#FEC986;" d="M143.927,203.966V75.882c8.842,0,16.011-7.168,16.011-16.011h48.032
	c0,8.842,7.168,16.011,16.011,16.011v128.084"/>
<g>
	<polygon style="fill:#FEB860;" points="448.126,332.05 448.126,292.024 416.105,292.024 416.105,332.05 400.094,332.05 
		400.094,364.071 416.105,364.071 448.126,364.071 464.135,364.071 464.135,332.05 	"/>
	<polygon style="fill:#FEB860;" points="352.063,332.05 352.063,292.024 320.042,292.024 320.042,332.05 304.031,332.05 
		304.031,364.071 304.031,460.133 368.073,460.133 368.073,364.071 368.073,332.05 	"/>
</g>
<g>
	<circle style="fill:#C8546F;" cx="336.057" cy="412.102" r="24.015"/>
	<rect x="400.093" y="364.067" style="fill:#C8546F;" width="64.036" height="96.06"/>
	<polygon style="fill:#C8546F;" points="111.906,203.966 47.865,203.966 47.865,99.899 63.875,35.857 95.895,35.857 111.906,99.899 
			"/>
</g>
<rect x="47.865" y="131.919" style="fill:#FEB860;" width="64.036" height="32.02"/>
<rect x="143.927" y="131.919" style="fill:#C8546F;" width="80.048" height="40.029"/>
<g>
	<path style="fill:#FEC986;" d="M336.053,203.966h-32.021v-64.041c0-8.842,7.169-16.011,16.011-16.011l0,0
		c8.842,0,16.01,7.168,16.01,16.011v64.041H336.053z"/>
	<path style="fill:#FEC986;" d="M408.1,203.966h-32.022v-64.041c0-8.842,7.169-16.011,16.011-16.011l0,0
		c8.842,0,16.011,7.168,16.011,16.011v64.041H408.1z"/>
	<path style="fill:#FEC986;" d="M480.147,203.966h-32.021v-64.041c0-8.842,7.168-16.011,16.01-16.011l0,0
		c8.843,0,16.011,7.168,16.011,16.011v64.041H480.147z"/>
	<path style="fill:#FEC986;" d="M63.875,460.133H31.854v-64.041c0-8.842,7.168-16.011,16.011-16.011l0,0
		c8.842,0,16.011,7.169,16.011,16.011V460.133z"/>
	<path style="fill:#FEC986;" d="M135.922,460.133h-32.021v-64.041c0-8.842,7.168-16.011,16.011-16.011l0,0
		c8.842,0,16.011,7.169,16.011,16.011V460.133z"/>
	<path style="fill:#FEC986;" d="M207.969,460.133h-32.021v-64.041c0-8.842,7.168-16.011,16.011-16.011l0,0
		c8.842,0,16.011,7.169,16.011,16.011V460.133z"/>
</g>
<g>
	<rect x="7.839" y="203.972" style="fill:#9B4573;" width="496.32" height="40.029"/>
	<rect x="7.839" y="460.137" style="fill:#9B4573;" width="496.32" height="40.029"/>
</g>
<g>
	<rect x="47.865" y="4.002" style="fill:#1D1D1B;" width="64.036" height="15.677"/>
	<rect x="167.945" y="28.019" style="fill:#1D1D1B;" width="32.021" height="15.677"/>
	<rect x="159.939" y="4.002" style="fill:#1D1D1B;" width="48.032" height="15.677"/>
	<path style="fill:#1D1D1B;" d="M487.986,196.128v-56.203c0-10.406-6.7-19.269-16.011-22.519V83.721h16.178V68.044h-48.031v15.677
		h16.177v33.684c-9.31,3.25-16.01,12.114-16.01,22.519v56.203h-24.349v-56.202c0-10.406-6.7-19.269-16.011-22.519V83.721h16.178
		V68.044h-48.032v15.677h16.178v33.684c-9.31,3.25-16.01,12.114-16.01,22.519v56.203h-24.35v-56.202
		c0-10.406-6.699-19.269-16.01-22.519V83.721h16.178V68.044h-48.032v15.677h16.178v33.684c-9.31,3.25-16.011,12.114-16.011,22.519
		v56.203h-64.375V68.044h-7.839c-4.507,0-8.172-3.665-8.172-8.172v-7.839h-63.709v7.839c0,4.507-3.665,8.172-8.172,8.172h-7.839
		v128.084h-16.344V98.932l-17.733-70.913H57.755L40.026,98.932v97.196H0v55.703h512v-55.703H487.986z M455.964,139.925
		c0-4.507,3.665-8.172,8.171-8.172c4.506,0,8.172,3.665,8.172,8.172v56.203h-16.344v-56.203H455.964z M383.917,139.925
		c0-4.507,3.665-8.172,8.171-8.172c4.506,0,8.172,3.665,8.172,8.172v56.203h-16.344v-56.203H383.917z M311.87,139.925
		c0-4.507,3.666-8.172,8.172-8.172c4.506,0,8.171,3.665,8.171,8.172v56.203h-16.344v-56.203H311.87z M216.141,164.108h-64.375
		v-24.349h64.375L216.141,164.108L216.141,164.108z M166.453,67.711h35.001c2.392,6.855,7.832,12.295,14.687,14.687v41.683h-64.376
		V82.398C158.621,80.006,164.061,74.566,166.453,67.711z M151.766,179.785h64.375v16.344h-64.375V179.785z M104.067,156.102H55.703
		v-16.343h48.364C104.067,139.759,104.067,156.102,104.067,156.102z M69.996,43.696h19.78l14.292,57.166v23.219H55.703v-23.219
		L69.996,43.696z M55.703,171.779h48.364v24.349H55.703V171.779z M496.323,236.154H15.677v-24.349h280.516h47.698h24.35h47.698
		h24.349h47.698h8.338v24.349H496.323z"/>
	<rect x="304.033" y="260.169" style="fill:#1D1D1B;" width="64.036" height="15.677"/>
	<rect x="400.093" y="260.169" style="fill:#1D1D1B;" width="64.036" height="15.677"/>
	<path style="fill:#1D1D1B;" d="M471.974,452.294V324.212h-16.01v-40.026h-47.698v40.026h-16.011v128.083h-16.344V324.212h-16.01
		v-40.026h-47.698v40.026h-16.011v128.083h-80.385v-56.203c0-10.405-6.7-19.269-16.011-22.519v-33.684h16.178v-15.677h-48.032
		v15.677h16.177v33.684c-9.31,3.25-16.011,12.114-16.011,22.519v56.203H143.76v-56.203c0-10.405-6.7-19.269-16.011-22.519v-33.684
		h16.177v-15.677H95.895v15.677h16.178v33.684c-9.31,3.25-16.011,12.114-16.011,22.519v56.203H71.714v-56.203
		c0-10.405-6.7-19.269-16.011-22.519v-33.684h16.178v-15.677H23.849v15.677h16.177v33.684c-9.31,3.25-16.01,12.114-16.01,22.519
		v56.203H0v55.703h512v-55.703L471.974,452.294L471.974,452.294z M407.933,339.889h16.011v-40.026h16.344v40.026h16.01v16.344
		h-48.364V339.889z M407.933,371.91h48.364v80.385h-48.364V371.91z M311.87,432.8c5.847,6.821,14.515,11.156,24.183,11.156
		c9.667,0,18.335-4.334,24.183-11.155v19.493h-48.364V432.8H311.87z M319.876,412.102c0-8.92,7.256-16.177,16.177-16.177
		c8.92,0,16.178,7.256,16.178,16.177c0,8.92-7.256,16.178-16.178,16.178C327.132,428.279,319.876,421.022,319.876,412.102z
		 M327.881,339.889v-40.026h16.344v40.026h16.01v51.514c-5.848-6.821-14.516-11.155-24.183-11.155
		c-9.668,0-18.336,4.334-24.183,11.155v-51.514H327.881z M183.787,396.092c0-4.507,3.665-8.172,8.172-8.172s8.172,3.665,8.172,8.172
		v56.203h-16.344V396.092z M111.74,396.092c0-4.507,3.665-8.172,8.172-8.172c4.507,0,8.172,3.665,8.172,8.172v56.203H111.74V396.092
		z M39.694,396.092c0-4.507,3.665-8.172,8.172-8.172c4.506,0,8.171,3.665,8.171,8.172v56.203H39.694V396.092z M496.323,492.321
		H15.677v-24.349h480.646V492.321z"/>
</g>
<g>
</g>
<g>
</g>
<g>
</g>
<g>
</g>
<g>
</g>
<g>
</g>
<g>
</g>
<g>
</g>
<g>
</g>
<g>
</g>
<g>
</g>
<g>
</g>
<g>
</g>
<g>
</g>
<g>
</g>
</svg>
