<?xml version="1.0" encoding="iso-8859-1"?>
<!-- Generator: Adobe Illustrator 19.0.0, SVG Export Plug-In . SVG Version: 6.00 Build 0)  -->
<svg version="1.1" id="Layer_1" xmlns="http://www.w3.org/2000/svg" xmlns:xlink="http://www.w3.org/1999/xlink" x="0px" y="0px"
	 viewBox="0 0 512 512" style="enable-background:new 0 0 512 512;" xml:space="preserve">
<path style="fill:#CF9F70;" d="M511.934,138.973H0.065V37.719h511.87V138.973z"/>
<rect x="256" y="37.719" style="fill:#A5805B;" width="255.933" height="101.254"/>
<polygon style="fill:#CF9F70;" points="65.428,457.586 32.037,457.586 32.037,105.582 479.964,105.582 479.964,457.586 
	446.573,457.586 "/>
<polygon style="fill:#A5805B;" points="272.696,457.586 256,457.586 256,105.582 479.964,105.582 479.964,457.586 463.269,457.586 
	"/>
<path style="fill:#954927;" d="M511.934,138.973H0.065v-33.391h511.87V138.973z"/>
<path style="fill:#783C21;" d="M511.934,138.973H256v-33.391h255.935v33.391H511.934z"/>
<path style="fill:#575759;" d="M97.017,454.172V218.859h16.696c25.665,0,44.41-11.406,64.258-23.484
	c21.138-12.861,45.096-27.439,78.029-27.439s56.891,14.579,78.029,27.439c19.848,12.078,38.595,23.484,64.258,23.484h16.696v235.313
	H97.017z"/>
<path style="fill:#474748;" d="M414.983,218.859h-16.696c-25.665,0-44.41-11.406-64.258-23.484
	c-21.137-12.861-45.096-27.439-78.029-27.439v286.236h158.983V218.859z"/>
<path style="fill:#E69824;" d="M256,474.281c-31.786,0-55.974-7.729-71.891-22.973c-12.536-12.005-19.506-28.331-20.157-47.213
	c-0.916-26.585,7.722-59.314,8.091-60.694l6.379-23.916l36.639,27.546L256,287.95l40.939,59.08l36.639-27.546l6.379,23.916
	c0.368,1.38,9.007,34.11,8.091,60.694c-0.65,18.882-7.621,35.208-20.156,47.213C311.973,466.552,287.786,474.281,256,474.281z"/>
<path style="fill:#F1CE30;" d="M199.26,376.928c-1.278,8.418-2.222,17.768-1.938,26.018c0.35,10.144,3.674,18.302,9.88,24.247
	c9.357,8.961,26.231,13.698,48.796,13.698s39.438-4.737,48.796-13.698c6.206-5.945,9.531-14.102,9.881-24.247
	c0.285-8.251-0.659-17.601-1.937-26.018l-23.476,17.65L256,346.576l-33.262,48L199.26,376.928z"/>
<path style="fill:#CF8920;" d="M339.958,343.401l-6.379-23.916L296.94,347.03L256,287.95v186.331
	c31.786,0,55.973-7.729,71.891-22.973c12.536-12.005,19.506-28.331,20.156-47.213C348.964,377.512,340.326,344.782,339.958,343.401z
	"/>
<path style="fill:#D9BA2C;" d="M312.74,376.928l-23.476,17.65L256,346.576v94.314c22.565,0,39.438-4.737,48.796-13.698
	c6.206-5.945,9.531-14.102,9.88-24.247C314.961,394.694,314.017,385.345,312.74,376.928z"/>
<rect y="440.888" style="fill:#954927;" width="512" height="33.391"/>
<rect x="256" y="440.888" style="fill:#783C21;" width="256" height="33.391"/>
<g>
</g>
<g>
</g>
<g>
</g>
<g>
</g>
<g>
</g>
<g>
</g>
<g>
</g>
<g>
</g>
<g>
</g>
<g>
</g>
<g>
</g>
<g>
</g>
<g>
</g>
<g>
</g>
<g>
</g>
</svg>
