<?xml version="1.0" encoding="iso-8859-1"?>
<!-- Generator: Adobe Illustrator 19.0.0, SVG Export Plug-In . SVG Version: 6.00 Build 0)  -->
<svg version="1.1" id="Layer_1" xmlns="http://www.w3.org/2000/svg" xmlns:xlink="http://www.w3.org/1999/xlink" x="0px" y="0px"
	 viewBox="0 0 512 512" style="enable-background:new 0 0 512 512;" xml:space="preserve">
<g>
	<g>
		<path d="M479.964,440.89V138.973h31.971V37.718H0.065v101.256h31.972V440.89H0v33.391h512V440.89H479.964z M314.676,402.946
			c-0.348,10.144-3.674,18.302-9.88,24.247c-9.357,8.961-26.23,13.698-48.796,13.698s-39.438-4.738-48.796-13.698
			c-6.206-5.945-9.531-14.102-9.88-24.247c-0.284-8.251,0.659-17.601,1.938-26.018l23.477,17.648l33.261-48l33.263,48.001
			l23.476-17.65C314.017,385.345,314.961,394.695,314.676,402.946z M381.592,440.889h-44.941
			c7.012-10.418,10.919-22.911,11.396-36.795c0.916-26.583-7.721-59.313-8.09-60.694l-6.379-23.916L296.94,347.03L256,287.949
			l-40.939,59.08l-36.639-27.546l-6.379,23.916c-0.368,1.38-9.007,34.11-8.091,60.694c0.479,13.883,4.385,26.376,11.398,36.795
			h-44.94V251.071c26.5-3.794,46.723-16.099,64.919-27.171c19.907-12.113,37.1-22.574,60.672-22.574s40.764,10.46,60.672,22.574
			c18.197,11.073,38.42,23.376,64.919,27.171V440.889z M446.573,440.889h-31.59V218.858h-16.696
			c-25.665,0-44.41-11.406-64.258-23.484c-21.137-12.861-45.096-27.439-78.029-27.439s-56.891,14.579-78.029,27.439
			c-19.848,12.078-38.594,23.484-64.258,23.484H97.017v222.031H65.428V138.973h381.145V440.889z M478.543,105.583H33.456V71.11
			h445.087V105.583z"/>
	</g>
</g>
<g>
</g>
<g>
</g>
<g>
</g>
<g>
</g>
<g>
</g>
<g>
</g>
<g>
</g>
<g>
</g>
<g>
</g>
<g>
</g>
<g>
</g>
<g>
</g>
<g>
</g>
<g>
</g>
<g>
</g>
</svg>
