<?xml version="1.0" encoding="iso-8859-1"?>
<!-- Generator: Adobe Illustrator 19.0.0, SVG Export Plug-In . SVG Version: 6.00 Build 0)  -->
<svg version="1.1" id="Layer_1" xmlns="http://www.w3.org/2000/svg" xmlns:xlink="http://www.w3.org/1999/xlink" x="0px" y="0px"
	 viewBox="0 0 511.986 511.986" style="enable-background:new 0 0 511.986 511.986;" xml:space="preserve">
<path style="fill:#7F4545;" d="M504.672,234.654c-17.625-49.654-65.061-85.325-120.684-85.325H127.996
	c-55.624,0-103.06,35.671-120.684,85.325H0v53.334h0.438c5.438,65.592,60.576,117.34,127.559,117.34h255.992
	c66.982,0,122.121-51.748,127.559-117.34h0.438v-53.334H504.672z"/>
<path style="fill:#A0D468;" d="M383.988,117.33H127.996c-64.811,0-117.34,52.529-117.34,117.324
	c0,64.803,52.53,117.332,117.34,117.332h255.992c64.811,0,117.34-52.529,117.34-117.332
	C501.328,169.859,448.799,117.33,383.988,117.33z"/>
<path style="fill:#A85D5D;" d="M383.988,362.642H127.996C57.42,362.642,0,305.238,0,234.654c0-70.575,57.42-127.996,127.996-127.996
	h255.992c70.576,0,127.996,57.421,127.996,127.996C511.984,305.238,454.564,362.642,383.988,362.642z M127.996,127.986
	c-58.811,0-106.653,47.857-106.653,106.668c0,58.803,47.842,106.677,106.653,106.677h255.992
	c58.811,0,106.652-47.874,106.652-106.677c0-58.811-47.842-106.668-106.652-106.668L127.996,127.986L127.996,127.986z"/>
<path style="fill:#ED5564;" d="M213.337,234.654c0,47.116-38.218,85.334-85.341,85.334c-47.124,0-85.341-38.218-85.341-85.334
	c0-47.123,38.218-85.325,85.341-85.325S213.337,187.531,213.337,234.654z"/>
<g>
	<polygon style="fill:#434A54;" points="186.541,166.906 177.869,159.985 149.339,149.329 127.996,149.329 127.996,234.654 
		188.338,174.312 	"/>
	<polygon style="fill:#434A54;" points="67.655,294.988 127.996,319.988 127.996,234.654 	"/>
	<polygon style="fill:#434A54;" points="60.248,176.109 53.342,184.781 42.655,213.327 42.655,234.654 127.996,234.654 
		67.655,174.312 	"/>
	<polygon style="fill:#434A54;" points="188.338,294.988 213.337,234.654 127.996,234.654 	"/>
	<path style="fill:#434A54;" d="M149.339,234.654c0,11.781-9.562,21.328-21.343,21.328s-21.343-9.547-21.343-21.328
		c0-11.78,9.562-21.327,21.343-21.327S149.339,222.874,149.339,234.654z"/>
</g>
<path style="fill:#FFCE54;" d="M127.996,266.653c-17.656,0-31.999-14.358-31.999-31.999c0-17.64,14.343-31.999,31.999-31.999
	c17.655,0,31.999,14.359,31.999,31.999C159.995,252.295,145.652,266.653,127.996,266.653z M127.996,223.983
	c-5.875,0-10.656,4.796-10.656,10.671c0,5.891,4.781,10.672,10.656,10.672s10.656-4.781,10.656-10.672
	C138.652,228.779,133.871,223.983,127.996,223.983z"/>
<path style="fill:#F5F7FA;" d="M447.986,170.656c0-5.89-4.781-10.671-10.656-10.671H245.336c-5.906,0-10.687,4.781-10.687,10.671
	c0,0.078,0.031,0.156,0.031,0.219h-0.031v127.551h0.031c0,0.094-0.031,0.156-0.031,0.219c0,5.906,4.781,10.688,10.687,10.688H437.33
	c5.875,0,10.656-4.781,10.656-10.688c0-0.062,0-0.125,0-0.219l0,0V170.875l0,0C447.986,170.812,447.986,170.734,447.986,170.656z
	 M383.988,181.328h42.654v42.655h-42.654V181.328z M298.646,287.988h-42.654v-42.662h42.654V287.988z M298.646,223.983h-42.654
	v-42.655h42.654V223.983z M362.644,287.988H319.99v-42.662h42.654V287.988z M362.644,223.983H319.99v-42.655h42.654V223.983z
	 M383.988,245.326h42.654v42.662h-42.654V245.326z"/>
<g>
	<path style="fill:#ED5564;" d="M274.211,210.202c-4.172,4.156-10.938,4.156-15.094,0c-4.156-4.172-4.156-10.922,0-15.093
		c4.156-4.156,10.922-4.156,15.094,0C278.367,199.28,278.367,206.03,274.211,210.202z"/>
	<path style="fill:#ED5564;" d="M295.521,220.874c-4.156,4.156-10.906,4.156-15.061,0c-4.188-4.172-4.188-10.922,0-15.094
		c4.154-4.172,10.904-4.172,15.061,0C299.709,209.952,299.709,216.702,295.521,220.874z"/>
</g>
<g>
	<path style="fill:#5D9CEC;" d="M412.861,284.864c-4.156,4.155-10.904,4.155-15.092,0c-4.156-4.156-4.156-10.906,0-15.086
		c4.188-4.172,10.936-4.172,15.092,0C417.017,273.958,417.017,280.708,412.861,284.864z"/>
	<path style="fill:#5D9CEC;" d="M412.861,220.874c-4.156,4.156-10.904,4.156-15.092,0c-4.156-4.172-4.156-10.922,0-15.094
		c4.188-4.172,10.936-4.172,15.092,0S417.017,216.702,412.861,220.874z"/>
</g>
<path style="fill:#AC92EB;" d="M348.863,274.208c-4.156,4.156-10.904,4.156-15.092,0c-4.156-4.18-4.156-10.929,0-15.101
	c4.188-4.156,10.936-4.156,15.092,0C353.019,263.279,353.019,270.028,348.863,274.208z"/>
<path style="fill:#FFCE54;" d="M127.996,330.643c-52.936,0-95.997-43.062-95.997-95.989c0-52.936,43.061-95.997,95.997-95.997
	s95.997,43.062,95.997,95.997C223.993,287.582,180.932,330.643,127.996,330.643z M127.996,159.985
	c-41.171,0-74.654,33.499-74.654,74.669c0,41.179,33.483,74.678,74.654,74.678c41.17,0,74.654-33.499,74.654-74.678
	C202.65,193.484,169.167,159.985,127.996,159.985z"/>
<g>
</g>
<g>
</g>
<g>
</g>
<g>
</g>
<g>
</g>
<g>
</g>
<g>
</g>
<g>
</g>
<g>
</g>
<g>
</g>
<g>
</g>
<g>
</g>
<g>
</g>
<g>
</g>
<g>
</g>
</svg>
