<?xml version="1.0" encoding="iso-8859-1"?>
<!-- Generator: Adobe Illustrator 18.0.0, SVG Export Plug-In . SVG Version: 6.00 Build 0)  -->
<!DOCTYPE svg PUBLIC "-//W3C//DTD SVG 1.1//EN" "http://www.w3.org/Graphics/SVG/1.1/DTD/svg11.dtd">
<svg version="1.1" id="Capa_1" xmlns="http://www.w3.org/2000/svg" xmlns:xlink="http://www.w3.org/1999/xlink" x="0px" y="0px"
	 viewBox="0 0 450.051 450.051" style="enable-background:new 0 0 450.051 450.051;" xml:space="preserve">
<g>
	<g>
		<path d="M42.78,206.894c-10.661,0-19.334-8.673-19.334-19.333c0-10.66,8.673-19.333,19.334-19.333
			c10.661,0,19.333,8.673,19.333,19.333C62.113,198.221,53.44,206.894,42.78,206.894z M42.78,177.227
			c-5.698,0-10.333,4.635-10.333,10.333c0,5.698,4.636,10.333,10.333,10.333c5.698,0,10.333-4.636,10.333-10.333
			C53.113,181.863,48.478,177.227,42.78,177.227z"/>
	</g>
	<g>
		<g>
			<path d="M407.272,206.894c-10.661,0-19.334-8.673-19.334-19.333c0-10.66,8.673-19.333,19.334-19.333
				c10.661,0,19.334,8.673,19.334,19.333C426.606,198.221,417.933,206.894,407.272,206.894z M407.272,177.227
				c-5.698,0-10.334,4.635-10.334,10.333c0,5.698,4.636,10.333,10.334,10.333c5.698,0,10.334-4.636,10.334-10.333
				C417.606,181.863,412.97,177.227,407.272,177.227z"/>
		</g>
		<path d="M450.051,187.56c0-23.589-19.19-42.78-42.779-42.78c-3.679,0-7.251,0.467-10.659,1.345
			c-2.948-29.739-28.074-53.054-58.575-53.054H112.015c-30.502,0-55.657,23.308-58.605,53.047c-3.4-0.873-6.961-1.338-10.629-1.338
			C19.191,144.781,0,163.971,0,187.56c0,20.183,14.143,37.477,33.495,41.756v70.354c-0.001,0.035-0.01,0.066-0.01,0.102
			c0,9.858,6.035,18.332,14.603,21.927c-1.399,2.276-2.221,4.942-2.221,7.804c0,5.875,4.56,10.466,7.381,12.744v10.233
			c0,2.485,2.015,4.5,4.5,4.5H76.96c2.485,0,4.5-2.015,4.5-4.5v-10.233c2.821-2.278,7.381-6.869,7.381-12.744
			c0-2.12-0.449-4.135-1.248-5.964H362.46c-0.799,1.829-1.248,3.844-1.248,5.964c0,5.875,4.56,10.466,7.381,12.744v10.233
			c0,2.485,2.015,4.5,4.5,4.5h19.213c2.485,0,4.5-2.015,4.5-4.5v-10.233c2.821-2.278,7.381-6.869,7.381-12.744
			c0-2.862-0.821-5.529-2.221-7.804c8.568-3.595,14.602-12.069,14.602-21.927c0-0.033-0.009-0.064-0.01-0.097v-70.358
			C435.909,225.038,450.051,207.743,450.051,187.56z M112.015,102.072h226.023c26.67,0,48.518,21.03,49.836,47.379
			c-13.862,7.085-23.381,21.502-23.381,38.11c0,0.044,0.001,0.089,0.001,0.129c0,0.038-0.001,0.077-0.001,0.115v42.49
			c-3.9-1.616-9.109-3.008-15.771-4.231c-13.855-2.543-32.222-3.943-51.713-3.943c-19.491,0-37.855,1.4-51.712,3.943
			c-9.674,1.775-16.317,3.902-20.271,6.565c-3.954-2.663-10.598-4.79-20.271-6.565c-13.855-2.543-32.22-3.943-51.711-3.943
			c-19.492,0-37.857,1.4-51.712,3.943c-6.662,1.223-11.871,2.615-15.771,4.231v-42.49c0-0.038,0-0.076-0.002-0.113
			c0.001-0.043,0.002-0.087,0.002-0.131c0-16.608-9.519-31.025-23.382-38.11C63.496,123.102,85.345,102.072,112.015,102.072z
			 M364.493,240.463v20.345c0,2.599-2.114,4.713-4.713,4.713H229.525v-25.064c3.349-3.307,26.224-9.336,67.483-9.336
			C338.3,231.121,361.17,237.157,364.493,240.463z M220.525,240.463v25.058H90.272c-2.599,0-4.713-2.114-4.713-4.713v-20.345
			c3.322-3.305,26.192-9.342,67.483-9.342C194.333,231.121,217.203,237.157,220.525,240.463z M79.841,329.503
			c0,2.218-3.166,5.294-5.293,6.665c-1.3,0.826-2.088,2.259-2.088,3.799v8.013H62.248v-8.013c0-1.529-0.79-2.962-2.075-3.791
			c-2.14-1.38-5.306-4.456-5.306-6.674c0-3.288,2.676-5.964,5.965-5.964h13.045C77.166,323.539,79.841,326.214,79.841,329.503z
			 M389.894,336.168c-1.301,0.826-2.089,2.259-2.089,3.799v8.013h-10.213v-8.013c0-1.529-0.79-2.962-2.075-3.791
			c-2.14-1.38-5.306-4.456-5.306-6.674c0-3.288,2.676-5.964,5.965-5.964h13.047c3.288,0,5.963,2.675,5.963,5.964
			C395.186,331.72,392.02,334.796,389.894,336.168z M413.305,220.786c0-0.001-0.001-0.003-0.001-0.004
			c-0.47,0.085-4.517,0.557-6.032,0.557c-5.561,0-10.854-1.305-15.733-3.877c-2.196-1.16-4.921-0.316-6.079,1.882
			c-1.159,2.198-0.316,4.92,1.882,6.079c6.1,3.216,12.991,4.916,19.931,4.916c0.096,0,0.189-0.006,0.285-0.006v69.439
			c0,0.022,0.006,0.043,0.007,0.064c-0.036,8.113-6.644,14.703-14.765,14.703H57.251c-8.12,0-14.727-6.588-14.764-14.7
			c0-0.023,0.007-0.044,0.007-0.067v-69.438c0.095,0.001,0.19,0.006,0.286,0.006c6.94,0,13.831-1.7,19.929-4.916
			c2.198-1.16,3.041-3.881,1.881-6.08c-1.159-2.198-3.88-3.042-6.079-1.881c-4.809,2.537-10.249,3.877-15.731,3.877
			c-1.974,0-3.932-0.19-5.858-0.528c0,0.003,0,0.006,0,0.009C20.892,218.023,9,204.007,9,187.56c0-18.627,15.153-33.78,33.78-33.78
			c18.626,0,33.779,15.153,33.779,33.737l-0.006,0.26c0,0.088,0.001,0.177,0.006,0.265v72.765c0,7.562,6.151,13.713,13.713,13.713
			H359.78c7.561,0,13.713-6.151,13.713-13.713v-72.772c0.004-0.077,0.006-0.154,0.006-0.231c0-0.096-0.003-0.19-0.006-0.244
			c0-18.627,15.153-33.78,33.779-33.78c18.626,0,33.779,15.153,33.779,33.78C441.051,203.946,429.246,217.916,413.305,220.786z"/>
	</g>
	<g>
		<path d="M149.354,133.085c-1.757-1.756-4.606-1.757-6.364,0l-3.325,3.325l-3.325-3.325c-1.758-1.757-4.606-1.757-6.364,0
			c-1.757,1.758-1.757,4.607,0,6.364l3.325,3.324l-3.325,3.325c-1.757,1.757-1.757,4.607,0,6.364
			c0.879,0.878,2.03,1.318,3.182,1.318c1.151,0,2.303-0.439,3.182-1.318l3.325-3.325l3.325,3.325
			c0.879,0.878,2.03,1.318,3.182,1.318c1.152,0,2.303-0.439,3.182-1.318c1.757-1.758,1.757-4.607,0-6.364l-3.325-3.325l3.325-3.324
			C151.112,137.692,151.112,134.843,149.354,133.085z"/>
		<path d="M149.354,182.563c-1.757-1.757-4.606-1.757-6.364,0l-3.325,3.325l-3.325-3.325c-1.758-1.757-4.606-1.757-6.364,0
			c-1.757,1.758-1.757,4.607,0,6.364l3.325,3.324l-3.325,3.325c-1.757,1.757-1.757,4.606,0,6.364
			c0.879,0.879,2.03,1.318,3.182,1.318c1.151,0,2.303-0.439,3.182-1.318l3.325-3.325l3.325,3.325
			c0.879,0.879,2.03,1.318,3.182,1.318c1.152,0,2.303-0.439,3.182-1.318c1.757-1.758,1.757-4.607,0-6.364l-3.325-3.325l3.325-3.324
			C151.112,187.17,151.112,184.321,149.354,182.563z"/>
		<path d="M316.751,142.774l3.324-3.324c1.758-1.757,1.758-4.606,0-6.364c-1.756-1.757-4.607-1.757-6.363,0l-3.325,3.325
			l-3.325-3.325c-1.756-1.757-4.608-1.757-6.363,0c-1.758,1.758-1.758,4.607,0,6.364l3.324,3.324l-3.324,3.325
			c-1.758,1.757-1.758,4.607,0,6.364c0.878,0.878,2.03,1.318,3.182,1.318s2.304-0.439,3.182-1.318l3.325-3.325l3.325,3.325
			c0.878,0.878,2.03,1.318,3.182,1.318s2.304-0.439,3.182-1.318c1.758-1.758,1.758-4.607,0-6.364L316.751,142.774z"/>
		<path d="M320.075,182.563c-1.756-1.757-4.607-1.757-6.363,0l-3.325,3.325l-3.325-3.325c-1.756-1.757-4.608-1.757-6.363,0
			c-1.758,1.758-1.758,4.607,0,6.364l3.324,3.324l-3.324,3.325c-1.758,1.757-1.758,4.606,0,6.364
			c0.878,0.879,2.03,1.318,3.182,1.318s2.304-0.439,3.182-1.318l3.325-3.325l3.325,3.325c0.878,0.879,2.03,1.318,3.182,1.318
			s2.304-0.439,3.182-1.318c1.758-1.758,1.758-4.607,0-6.364l-3.324-3.325l3.324-3.324
			C321.833,187.17,321.833,184.321,320.075,182.563z"/>
		<path d="M231.389,142.774l3.325-3.325c1.757-1.757,1.757-4.606-0.001-6.364c-1.758-1.757-4.606-1.757-6.364,0l-3.323,3.324
			l-3.324-3.324c-1.757-1.757-4.607-1.758-6.364,0c-1.758,1.757-1.758,4.606,0,6.364l3.325,3.325l-3.325,3.325
			c-1.757,1.757-1.757,4.606,0,6.364c0.878,0.878,2.03,1.318,3.182,1.318c1.152,0,2.304-0.439,3.182-1.318l3.324-3.324l3.323,3.324
			c0.879,0.879,2.031,1.318,3.183,1.318c1.151,0,2.303-0.439,3.182-1.318c1.758-1.757,1.758-4.606,0.001-6.364L231.389,142.774z"/>
		<path d="M234.713,182.563c-1.758-1.757-4.606-1.757-6.364,0.001l-3.323,3.324l-3.324-3.324c-1.757-1.758-4.607-1.757-6.364-0.001
			c-1.758,1.757-1.758,4.606,0,6.364l3.325,3.325l-3.325,3.325c-1.757,1.757-1.757,4.606,0,6.364
			c0.878,0.879,2.03,1.318,3.182,1.318c1.152,0,2.304-0.439,3.182-1.318l3.324-3.324l3.323,3.324
			c0.879,0.879,2.031,1.318,3.183,1.318c1.151,0,2.303-0.439,3.182-1.318c1.758-1.757,1.758-4.606,0.001-6.364l-3.325-3.325
			l3.325-3.325C236.471,187.169,236.471,184.32,234.713,182.563z"/>
	</g>
</g>
<g>
</g>
<g>
</g>
<g>
</g>
<g>
</g>
<g>
</g>
<g>
</g>
<g>
</g>
<g>
</g>
<g>
</g>
<g>
</g>
<g>
</g>
<g>
</g>
<g>
</g>
<g>
</g>
<g>
</g>
</svg>
