<?xml version="1.0" encoding="iso-8859-1"?>
<!-- Generator: Adobe Illustrator 19.0.0, SVG Export Plug-In . SVG Version: 6.00 Build 0)  -->
<svg version="1.1" id="Layer_1" xmlns="http://www.w3.org/2000/svg" xmlns:xlink="http://www.w3.org/1999/xlink" x="0px" y="0px"
	 viewBox="0 0 489.6 489.6" style="enable-background:new 0 0 489.6 489.6;" xml:space="preserve">
<path style="fill:#3B727F;" d="M349.6,466.4c0,11.2-47.2,23.2-104.8,23.2S140,477.6,140,466.4s47.2-40,104.8-40
	S349.6,456,349.6,466.4z"/>
<path style="fill:#5E8591;" d="M349.6,466.4c0,11.2-47.2,16-104.8,16s-104.8-4.8-104.8-16s47.2-40,104.8-40S349.6,456,349.6,466.4z"
	/>
<path style="fill:#729AA3;" d="M140,466.4c0-11.2,47.2-40,104.8-40"/>
<path style="fill:#3B727F;" d="M272.8,331.2c0,2.4-2.4,4.8-4.8,4.8h-47.2c-2.4,0-4.8-2.4-4.8-4.8l0,0c0-2.4,2.4-4.8,4.8-4.8h48
	C271.2,327.2,272.8,328.8,272.8,331.2L272.8,331.2z"/>
<g>
	<path style="fill:#185768;" d="M221.6,338.4c0,4.8-4,8-8,8l0,0c-4.8,0-8-4-8-8v-13.6c0-4.8,4-8,8-8l0,0c4.8,0,8,4,8,8V338.4z"/>
	<path style="fill:#185768;" d="M284.8,338.4c0,4.8-4,8-8,8l0,0c-4.8,0-8-4-8-8v-13.6c0-4.8,4-8,8-8l0,0c4.8,0,8,4,8,8V338.4z"/>
</g>
<path style="fill:#5E8591;" d="M253.6,438.4c0,4.8-4,8.8-8.8,8.8l0,0c-4.8,0-8.8-4-8.8-8.8V248c0-4.8,4-8.8,8.8-8.8l0,0
	c4.8,0,8.8,4,8.8,8.8V438.4z"/>
<path style="fill:#185768;" d="M244.8,239.2c-4.8,0-8.8,4-8.8,8.8v27.2c3.2,0,5.6,0,8.8,0c3.2,0,6.4,0,8.8,0V248
	C253.6,243.2,249.6,239.2,244.8,239.2z"/>
<path style="fill:#073A4C;" d="M392.8,107.2c0,56.8-66.4,144.8-148,144.8s-148-88-148-144.8S163.2,2.4,244.8,2.4
	S392.8,50.4,392.8,107.2z"/>
<path style="fill:#001116;" d="M244.8,2.4c81.6,0,148,48,148,104.8S326.4,252,244.8,252"/>
<path style="fill:#E02270;" d="M392.8,107.2c0,56.8-66.4,111.2-148,111.2s-148-54.4-148-111.2S163.2,0,244.8,0
	S392.8,50.4,392.8,107.2z"/>
<ellipse style="fill:#C61756;" cx="244.8" cy="107.2" rx="148" ry="103.2"/>
<path style="fill:#B2094E;" d="M244.8,4c81.6,0,148,46.4,148,103.2s-66.4,103.2-148,103.2"/>
<path style="fill:#931146;" d="M360,96.8c0,32.8-51.2,76-115.2,76c-63.2,0-115.2-43.2-115.2-76S181.6,28,244.8,28S360,64,360,96.8z"
	/>
<path style="fill:#7C083D;" d="M244.8,28C308,28,360,64,360,96.8s-51.2,76-115.2,76"/>
<path style="fill:#A6D350;" d="M244.8,125.6c-36.8,0-71.2,1.6-100,4c20,23.2,56.8,43.2,100,43.2s80.8-20,100-43.2
	C316,126.4,281.6,125.6,244.8,125.6z"/>
<path style="fill:#8CB238;" d="M335.2,139.2c-26.4-2.4-57.6-3.2-90.4-3.2s-63.2,0.8-90.4,3.2c20.8,18.4,53.6,32.8,90.4,32.8
	S313.6,157.6,335.2,139.2z"/>
<g>
</g>
<g>
</g>
<g>
</g>
<g>
</g>
<g>
</g>
<g>
</g>
<g>
</g>
<g>
</g>
<g>
</g>
<g>
</g>
<g>
</g>
<g>
</g>
<g>
</g>
<g>
</g>
<g>
</g>
</svg>
