<?xml version="1.0" encoding="iso-8859-1"?>
<!-- Generator: Adobe Illustrator 18.0.0, SVG Export Plug-In . SVG Version: 6.00 Build 0)  -->
<!DOCTYPE svg PUBLIC "-//W3C//DTD SVG 1.1//EN" "http://www.w3.org/Graphics/SVG/1.1/DTD/svg11.dtd">
<svg version="1.1" id="Capa_1" xmlns="http://www.w3.org/2000/svg" xmlns:xlink="http://www.w3.org/1999/xlink" x="0px" y="0px"
	 viewBox="0 0 296.871 296.871" style="enable-background:new 0 0 296.871 296.871;" xml:space="preserve">
<g>
	<path d="M263.879,239.176V38.463c0-3.039-2.464-5.504-5.503-5.504H57.669c-3.039,0-5.503,2.465-5.503,5.504v200.713
		c0,3.039,2.464,5.504,5.503,5.504h200.707C261.415,244.68,263.879,242.215,263.879,239.176z M252.873,233.674H63.172V43.965
		h189.701V233.674z"/>
	<path d="M212.74,291.369c0,3.039,2.464,5.502,5.503,5.502h40.141c3.039,0,5.504-2.463,5.504-5.502v-13.729h27.449
		c3.039,0,5.502-2.465,5.502-5.504V5.502c0-3.039-2.463-5.502-5.502-5.502H24.702c-3.039,0-5.503,2.463-5.503,5.502v67.605H5.535
		c-3.039,0-5.503,2.463-5.503,5.502v40.141c0,3.039,2.464,5.502,5.503,5.502h13.664v29.135H5.535c-3.039,0-5.503,2.463-5.503,5.502
		v40.145c0,3.039,2.464,5.504,5.503,5.504h13.664v67.6c0,3.039,2.464,5.504,5.503,5.504h27.472v13.729
		c0,3.039,2.464,5.502,5.503,5.502h40.14c3.039,0,5.503-2.463,5.503-5.502v-13.729H212.74V291.369z M11.038,113.246V84.113h8.161
		v29.133H11.038z M11.038,193.531v-29.139h8.161v29.139H11.038z M92.313,285.865H63.18v-8.225h29.134V285.865z M97.816,266.635
		h-40.14H30.205v-67.602v-40.145V118.75V78.609V11.006h255.628v255.629h-27.449h-40.141H97.816z M252.882,277.641v8.225h-29.136
		v-8.225H252.882z"/>
	<path d="M109.488,166.842c0.028,0.051,0.064,0.092,0.095,0.141c9.725,16.662,27.797,27.885,48.443,27.885
		c20.638,0,38.703-11.217,48.43-27.871c0.032-0.053,0.072-0.1,0.104-0.154c0.029-0.051,0.053-0.105,0.08-0.156
		c4.726-8.213,7.43-17.73,7.43-27.867c0-10.158-2.717-19.693-7.461-27.918c-0.018-0.031-0.031-0.064-0.049-0.096
		c-0.029-0.051-0.063-0.096-0.093-0.145c-9.724-16.664-27.795-27.887-48.44-27.887c-20.698,0-38.811,11.275-48.518,28.008
		c-0.005,0.008-0.011,0.014-0.015,0.021c-0.003,0.006-0.005,0.012-0.008,0.016c-4.774,8.244-7.511,17.809-7.511,28
		c0,10.145,2.709,19.668,7.441,27.885C109.442,166.75,109.462,166.797,109.488,166.842z M158.026,119.051
		c10.9,0,19.77,8.867,19.77,19.768c0,3.57-0.956,6.92-2.619,9.814c-0.014,0.023-0.03,0.045-0.044,0.068
		c-0.015,0.023-0.024,0.051-0.038,0.074c-3.435,5.863-9.797,9.813-17.068,9.813c-10.9,0-19.77-8.869-19.77-19.77
		S147.126,119.051,158.026,119.051z M203.063,138.818c0,6.236-1.274,12.182-3.576,17.588l-12.49-7.211
		c1.166-3.244,1.805-6.736,1.805-10.377c0-3.637-0.639-7.129-1.803-10.371l12.491-7.209
		C201.79,126.643,203.063,132.584,203.063,138.818z M129.055,149.191l-12.497,7.215c-2.301-5.406-3.576-11.35-3.576-17.588
		c0-6.234,1.274-12.178,3.575-17.584l12.497,7.215c-1.164,3.242-1.803,6.732-1.803,10.369
		C127.251,142.457,127.89,145.947,129.055,149.191z M122.077,165.928l12.496-7.215c4.52,5.318,10.809,9.084,17.95,10.379v14.432
		C140.122,182.006,129.263,175.43,122.077,165.928z M163.529,183.523v-14.432c7.141-1.295,13.429-5.059,17.947-10.375l12.492,7.211
		C186.785,175.43,175.929,182.006,163.529,183.523z M193.973,111.715l-12.492,7.211c-4.519-5.32-10.809-9.084-17.951-10.379V94.115
		C175.931,95.633,186.789,102.211,193.973,111.715z M152.523,94.115v14.432c-7.143,1.295-13.433,5.061-17.952,10.381l-12.496-7.215
		C129.261,102.209,140.121,95.633,152.523,94.115z"/>
</g>
<g>
</g>
<g>
</g>
<g>
</g>
<g>
</g>
<g>
</g>
<g>
</g>
<g>
</g>
<g>
</g>
<g>
</g>
<g>
</g>
<g>
</g>
<g>
</g>
<g>
</g>
<g>
</g>
<g>
</g>
</svg>
